<svg xmlns="http://www.w3.org/2000/svg" xmlns:xlink="http://www.w3.org/1999/xlink" aria-hidden="true" role="img" class="iconify iconify--logos" width="31.88" height="32" preserveAspectRatio="xMidYMid meet" viewBox="0 0 256 257"><defs><linearGradient id="IconifyId1813088fe1fbc01fb466" x1="-.828%" x2="57.636%" y1="7.652%" y2="78.411%"><stop offset="0%" stop-color="#41D9FF"></stop><stop offset="100%" stop-color="#41D9FF"></stop></linearGradient><linearGradient id="IconifyId1813088fe1fbc01fb467" x1="43.376%" x2="50.316%" y1="2.242%" y2="89.03%"><stop offset="0%" stop-color="#41D9FF"></stop><stop offset="100%" stop-color="#067DF7"></stop></linearGradient></defs><path fill="url(#IconifyId1813088fe1fbc01fb466)" d="M255.153 37.938L134.897 252.976c-2.483 4.44-8.862 4.466-11.382.048L.875 37.958c-2.746-4.814 1.371-10.646 6.827-9.67l120.385 21.517a6.537 6.537 0 0 0 2.322-.004l117.867-21.483c5.438-.991 9.574 4.796 6.877 9.62Z"></path><path fill="url(#IconifyId1813088fe1fbc01fb467)" d="M185.432.063L96.44 17.501a3.268 3.268 0 0 0-2.634 3.014l5.454 92.568a3.268 3.268 0 0 0 3.997 3.034l1.120-.182l82.548-14.043a3.268 3.268 0 0 0 2.873-3.005L188.21 6.109a3.268 3.268 0 0 0-2.778-6.046Z"></path><path fill="#41D9FF" d="M239.292 235.626L134.495 31.09c-2.167-4.04-8.348-4.067-10.52-.005L3.727 235.626c-2.406 4.5 1.507 10.016 6.485 9.108l113.636-20.272c1.29-.23 2.615-.243 3.893.003l113.874 20.305c4.987.89 8.876-4.632 6.477-9.144Z"></path></svg>
